<svg xmlns="http://www.w3.org/2000/svg" viewBox="0 0 32 32">
  <defs>
    <linearGradient id="bg" x1="0" y1="0" x2="1" y2="1">
      <stop offset="0%" stop-color="#C8956C"/>
      <stop offset="100%" stop-color="#D4A882"/>
    </linearGradient>
  </defs>
  <!-- Rounded background -->
  <rect width="32" height="32" rx="7" fill="url(#bg)"/>
  <!-- Book pages -->
  <path d="M8 6h11l5 4v16a2 2 0 01-2 2H8a2 2 0 01-2-2V8a2 2 0 012-2z" fill="#FFF" opacity="0.95"/>
  <!-- Spine line -->
  <line x1="19" y1="6" x2="19" y2="10" stroke="#C8956C" stroke-width="1.5" stroke-linecap="round"/>
  <polyline points="24 6 19 6 19 10" fill="none" stroke="#C8956C" stroke-width="1.5" stroke-linecap="round" stroke-linejoin="round"/>
  <!-- Text lines -->
  <line x1="10" y1="14" x2="19" y2="14" stroke="#C8956C" stroke-width="1.5" stroke-linecap="round"/>
  <line x1="10" y1="18" x2="17" y2="18" stroke="#C8956C" stroke-width="1.5" stroke-linecap="round"/>
  <line x1="10" y1="22" x2="19" y2="22" stroke="#C8956C" stroke-width="1.5" stroke-linecap="round"/>
  <!-- Translation arrows -->
  <path d="M9 26l2-2M9 26l-2-2M9 26v-3" stroke="#FFF" stroke-width="1.2" fill="none" stroke-linecap="round" stroke-linejoin="round"/>
  <path d="M23 26l-2 2M23 26l2 2M23 26v-3" stroke="#FFF" stroke-width="1.2" fill="none" stroke-linecap="round" stroke-linejoin="round"/>
</svg>
